<?xml version="1.0" standalone="no"?>
<!DOCTYPE svg PUBLIC "-//W3C//DTD SVG 20010904//EN"
 "http://www.w3.org/TR/2001/REC-SVG-20010904/DTD/svg10.dtd">
<svg version="1.0" xmlns="http://www.w3.org/2000/svg"
 width="1080.000000pt" height="1080.000000pt" viewBox="0 0 1080.000000 1080.000000"
 preserveAspectRatio="xMidYMid meet">
<metadata>
Created by potrace 1.14, written by Peter Selinger 2001-2017
</metadata>
<g transform="translate(0.000000,1080.000000) scale(0.100000,-0.100000)"
fill="#000000" stroke="none">
<path d="M6060 10255 c0 -2 -47 -240 -105 -529 -58 -288 -105 -528 -105 -533
0 -4 47 -17 105 -29 l105 -21 10 36 c5 20 11 50 14 66 8 47 69 350 71 353 2 2
95 -15 185 -33 14 -3 37 -7 52 -10 15 -3 57 -11 92 -19 l66 -13 6 36 c3 20 12
62 19 94 7 31 10 57 8 57 -9 0 -359 71 -375 76 -18 5 -18 5 7 119 8 39 17 81
19 95 2 14 8 24 12 24 5 -1 96 -19 202 -40 105 -20 194 -35 197 -32 6 5 45
181 42 185 -3 2 -276 59 -332 69 -16 3 -48 9 -70 14 -22 5 -56 12 -75 15 -19
3 -53 10 -75 15 -44 10 -75 13 -75 5z"/>
<path d="M4450 10219 c-91 -16 -175 -30 -188 -31 -25 -3 -25 -6 -2 -123 5 -27
12 -68 15 -90 3 -22 19 -119 35 -215 16 -96 32 -193 35 -215 3 -22 13 -80 21
-130 8 -49 17 -101 19 -115 2 -14 9 -61 16 -105 6 -44 14 -83 18 -87 5 -6 209
20 219 27 2 2 -4 47 -13 101 -22 131 -21 128 -34 213 -6 41 -9 76 -7 78 2 3
23 7 46 10 48 7 24 28 238 -209 82 -92 128 -136 140 -134 9 2 67 12 127 21 61
10 112 19 114 21 4 4 16 -9 -190 200 l-166 169 47 34 c124 90 167 252 106 402
-28 70 -57 107 -117 148 -100 70 -213 77 -479 30z m308 -186 c52 -26 73 -61
79 -129 4 -50 2 -64 -19 -94 -37 -56 -130 -92 -243 -94 -28 -1 -30 2 -36 44
-4 25 -10 61 -13 80 -20 115 -28 182 -22 187 9 10 147 29 184 27 19 -2 50 -11
70 -21z"/>
<path d="M7026 9998 c-24 -57 -67 -151 -91 -203 -204 -438 -236 -520 -236
-605 0 -157 84 -277 249 -357 214 -103 423 -54 528 123 20 34 94 191 178 377
8 18 29 64 46 102 56 123 110 246 110 251 0 2 -10 9 -22 14 -13 5 -59 25 -102
44 l-80 35 -143 -317 c-79 -174 -148 -328 -155 -342 -34 -72 -85 -115 -146
-126 -40 -8 -118 15 -163 48 -48 34 -69 79 -69 144 0 47 21 99 259 622 l60
133 -95 45 c-52 24 -100 44 -105 44 -5 0 -15 -15 -23 -32z"/>
<path d="M3520 9939 c-106 -21 -243 -94 -319 -170 -227 -227 -221 -578 14
-815 119 -120 247 -170 415 -161 161 9 291 67 406 181 119 119 170 249 161
411 -5 96 -7 107 -31 173 -69 191 -213 328 -396 375 -64 16 -185 19 -250 6z
m227 -236 c133 -62 231 -239 216 -388 -11 -114 -82 -213 -191 -266 -58 -29
-77 -33 -147 -33 -66 -1 -90 4 -136 25 -216 101 -289 401 -139 571 70 81 199
131 305 120 22 -2 64 -15 92 -29z"/>
<path d="M7996 9470 c-32 -43 -59 -81 -58 -85 0 -3 51 -45 111 -91 61 -47 111
-88 111 -90 0 -4 -377 -501 -530 -699 -5 -6 29 -39 82 -79 l91 -69 18 24 c269
358 516 678 525 678 6 1 60 -37 120 -84 60 -46 111 -85 114 -85 8 0 115 147
115 158 0 8 -132 111 -585 457 l-55 42 -59 -77z"/>
<path d="M2535 9384 c-44 -36 -155 -124 -247 -197 l-167 -131 52 -65 c28 -36
70 -89 92 -116 22 -28 52 -66 67 -85 15 -19 102 -129 193 -245 92 -115 190
-240 218 -277 29 -37 56 -67 60 -67 11 -1 167 122 167 131 0 5 -106 144 -183
238 -49 60 -85 107 -91 117 -4 7 33 43 96 93 57 45 120 96 142 113 21 17 45
36 53 42 12 9 5 23 -42 83 -31 40 -58 72 -61 72 -4 0 -166 -125 -277 -213 -22
-18 -41 -27 -45 -21 -22 24 -129 160 -135 171 -5 7 53 59 153 139 88 70 160
129 160 131 0 7 -111 148 -118 150 -4 1 -43 -28 -87 -63z"/>
<path d="M8645 8620 c-147 -120 -284 -235 -306 -255 -97 -87 -143 -182 -141
-290 3 -215 215 -442 419 -450 123 -4 201 35 379 190 7 6 111 91 232 190 121
99 221 184 221 189 1 11 -128 166 -139 166 -4 0 -28 -16 -52 -36 -23 -20 -63
-52 -88 -72 -48 -40 -173 -143 -205 -170 -11 -9 -56 -46 -100 -82 -44 -36 -86
-71 -94 -78 -30 -29 -90 -61 -125 -67 -55 -11 -99 2 -145 41 -80 69 -102 160
-58 239 15 26 89 96 217 203 223 186 211 176 318 262 45 36 80 68 79 72 -4 12
-132 167 -139 168 -4 0 -127 -99 -273 -220z"/>
<path d="M4930 8660 c-169 -29 -174 -30 -195 -39 -11 -5 -67 -22 -125 -36 -58
-15 -111 -32 -117 -37 -7 -6 -99 -36 -204 -69 -174 -53 -210 -68 -402 -170
-117 -61 -226 -122 -243 -134 -16 -13 -47 -30 -67 -39 -21 -8 -36 -20 -35 -27
2 -6 -15 -23 -38 -38 -125 -80 -131 -85 -289 -235 -118 -111 -124 -118 -175
-174 -21 -24 -44 -41 -49 -37 -6 3 -11 2 -11 -3 0 -8 -75 -107 -119 -157 -9
-11 -27 -35 -40 -52 -12 -18 -43 -56 -67 -85 -50 -58 -147 -202 -211 -313 -61
-105 -165 -305 -159 -305 3 0 -8 -28 -24 -62 -17 -35 -30 -69 -30 -75 0 -7 -4
-13 -9 -13 -11 0 -81 -194 -83 -232 -1 -16 -5 -28 -8 -28 -20 0 -45 -122 -30
-150 7 -13 7 -28 -1 -46 -5 -16 -12 -53 -15 -83 -3 -30 -8 -58 -13 -61 -11 -7
-29 -115 -37 -225 -14 -189 -2 -697 17 -720 9 -12 16 -55 24 -159 3 -38 8 -73
11 -77 9 -16 13 -50 18 -156 3 -76 8 -106 20 -118 9 -9 16 -19 17 -23 0 -4 2
-27 4 -52 2 -27 25 -94 59 -170 31 -69 56 -130 56 -136 0 -7 6 -14 14 -17 7
-3 28 -43 46 -89 40 -101 90 -198 101 -198 5 0 8 -4 6 -8 -2 -9 79 -137 106
-167 10 -11 28 -38 39 -60 18 -36 85 -132 113 -161 36 -39 104 -123 126 -158
31 -47 188 -210 239 -249 19 -14 63 -53 97 -86 35 -32 98 -82 140 -110 43 -29
90 -62 104 -75 34 -30 203 -147 254 -176 78 -44 411 -207 475 -233 76 -30 144
-43 215 -40 55 3 124 -15 106 -26 -10 -6 43 -23 142 -46 9 -2 21 -6 25 -9 5
-3 19 -7 33 -9 84 -16 150 -27 194 -33 28 -3 58 -8 68 -10 19 -3 103 -11 202
-19 65 -6 364 -6 405 -1 14 2 44 4 68 5 26 0 41 5 37 11 -4 6 8 10 27 11 18 0
43 2 56 5 13 2 21 0 17 -5 -3 -5 24 -1 59 9 36 10 67 16 70 13 3 -3 40 4 83
15 43 12 87 21 98 20 31 -3 165 34 159 44 -3 4 0 8 6 8 7 0 26 6 43 14 18 7
52 19 77 26 76 20 225 79 338 132 114 54 320 173 337 195 6 8 40 29 75 46 112
57 183 105 260 177 41 39 80 70 85 70 15 0 321 305 388 387 31 39 57 77 57 85
0 7 20 34 45 58 24 24 57 69 71 99 15 31 49 88 75 126 52 77 136 230 187 341
107 234 252 695 258 819 2 63 11 134 21 175 12 51 20 541 10 596 -3 16 -9 65
-12 108 -4 43 -8 86 -10 95 -1 9 -6 39 -9 66 -21 163 -114 522 -166 640 -5 11
-25 58 -44 105 -62 153 -170 368 -239 473 -21 31 -35 62 -32 67 3 5 -5 16 -19
25 -13 9 -39 39 -58 68 -42 62 -179 236 -233 292 -91 98 -100 108 -82 102 9
-4 17 -5 17 -3 0 6 -54 61 -57 59 -2 -2 -9 -3 -15 -3 -9 0 -8 4 2 10 12 8 11
10 -6 8 -25 -3 -164 116 -164 141 0 10 14 2 42 -24 29 -27 35 -30 18 -10 -32
38 -53 54 -62 49 -5 -3 -8 0 -8 5 0 6 -7 11 -16 11 -9 0 -12 -5 -8 -12 4 -6 3
-8 -4 -4 -6 3 -9 15 -7 26 2 11 -1 23 -7 26 -7 5 -8 2 -3 -6 6 -10 4 -12 -10
-6 -16 6 -16 4 -4 -11 13 -15 -71 47 -161 119 -19 16 -41 33 -48 39 -7 6 -41
26 -75 45 -34 20 -69 42 -77 50 -8 8 18 -3 59 -25 41 -23 76 -41 79 -41 3 0
15 -8 26 -17 21 -18 21 -18 2 5 -11 12 -22 22 -26 22 -8 0 -137 78 -225 135
-69 45 -131 76 -139 68 -9 -10 -218 83 -266 118 -34 26 -192 87 -265 103 -237
53 -353 76 -439 86 -54 6 -108 13 -119 16 -11 2 -43 6 -71 10 -28 3 -67 8 -86
10 -19 2 -152 6 -295 8 -215 3 -278 0 -365 -14z m336 -203 c-258 -360 -366
-523 -366 -553 0 -27 36 2 66 53 15 27 59 90 96 141 64 86 250 360 311 459 25
39 29 41 81 45 l54 3 -36 -50 c-64 -88 -236 -320 -242 -325 -16 -14 -226 -308
-282 -395 -93 -144 -130 -213 -117 -221 6 -3 12 -4 13 -3 1 2 29 45 61 94 32
50 128 185 215 300 180 241 287 395 355 512 l48 83 41 -1 c22 0 54 -3 70 -6
28 -5 28 -6 21 -57 -19 -119 1 -177 61 -184 16 -2 32 -9 36 -15 23 -36 -15
-191 -53 -219 -14 -11 -54 -23 -89 -28 -88 -12 -115 -34 -114 -93 1 -77 41
-107 145 -108 55 -1 102 -19 87 -34 -6 -7 -50 -17 -131 -31 -55 -10 -134 -42
-189 -78 -53 -33 -57 -39 -68 -90 -15 -75 -39 -92 -131 -95 -54 -2 -82 -51
-94 -166 -7 -72 -32 -148 -58 -176 -37 -40 -127 -4 -232 92 -61 56 -95 112
-95 155 0 15 18 62 39 103 22 42 42 93 46 112 6 31 3 39 -20 57 l-26 21 25 22
c47 41 28 98 -36 114 -33 8 -34 13 -12 44 9 13 17 41 18 63 1 41 -14 59 -88
111 -16 11 -26 27 -26 42 0 14 -10 35 -21 46 -20 20 -29 21 -106 16 -89 -6
-87 -5 -162 -74 -39 -37 -66 -42 -80 -15 -10 19 -49 217 -48 244 0 9 6 14 13
11 7 -2 22 1 34 7 13 7 20 8 16 2 -12 -20 13 -23 31 -4 16 16 111 62 128 62 4
0 -14 -29 -39 -65 -68 -98 -80 -123 -65 -142 11 -12 16 -9 32 24 11 21 44 75
73 121 40 61 60 82 77 83 12 0 34 2 49 4 26 3 25 2 -28 -76 -51 -76 -69 -124
-41 -114 6 3 23 24 36 48 14 23 45 74 70 114 43 67 49 72 94 82 27 6 53 9 58
6 5 -3 18 -1 29 5 30 16 25 0 -21 -66 -44 -62 -99 -164 -99 -183 0 -27 20 -7
50 52 18 34 47 83 65 108 18 25 35 55 39 65 4 13 24 26 58 37 29 9 54 15 56
13 5 -6 -57 -127 -84 -161 -32 -43 -84 -156 -77 -169 4 -6 10 -4 15 5 13 21
95 167 130 229 52 92 66 109 96 109 15 0 50 4 79 9 37 6 50 6 46 -2 -4 -6 -44
-60 -88 -121 -179 -242 -241 -373 -172 -363 20 3 54 55 268 410 l53 87 45 3
c25 2 60 1 77 0 l32 -4 -102 -141z m786 115 c5 -5 -16 -4 -46 2 -71 15 -82 26
-15 15 29 -5 56 -12 61 -17z m-306 2 c-5 -14 -4 -15 9 -4 8 7 23 9 32 5 10 -4
42 -9 72 -11 73 -5 153 -20 298 -54 295 -71 602 -197 890 -367 l93 -54 -38
-32 c-76 -64 -109 -106 -123 -154 -17 -62 -16 -54 -18 -116 -1 -45 -8 -64 -43
-118 -24 -35 -74 -95 -111 -134 -38 -38 -77 -87 -88 -108 -30 -58 -32 -125 -5
-183 41 -87 78 -104 167 -74 29 10 56 16 59 14 3 -3 5 -34 5 -69 0 -90 23
-112 113 -106 37 2 82 53 82 93 0 29 5 37 35 51 42 20 67 65 68 124 0 38 -5
49 -36 81 -38 39 -47 62 -23 62 23 0 35 24 40 78 2 28 9 67 16 87 12 37 44 63
55 45 8 -14 -3 -81 -26 -154 -24 -77 -24 -93 1 -134 43 -70 138 -93 206 -51
19 11 34 25 34 30 0 15 17 10 24 -7 10 -26 -13 -55 -60 -75 -49 -22 -64 -43
-64 -88 0 -32 -22 -45 -65 -37 -28 4 -65 -14 -66 -33 0 -9 0 -39 1 -68 1 -41
-2 -54 -17 -61 -36 -20 -280 -34 -351 -21 -62 12 -86 -1 -122 -69 -47 -89
-101 -144 -211 -217 -55 -36 -104 -75 -108 -88 -13 -34 7 -76 51 -104 39 -26
68 -68 68 -97 0 -20 -27 -25 -127 -23 -91 1 -108 -7 -121 -57 -10 -37 -8 -221
2 -254 12 -37 40 -44 178 -43 174 0 197 15 204 134 2 55 6 63 46 104 67 68
136 111 188 116 43 5 46 3 68 -32 13 -20 46 -52 74 -71 28 -19 59 -45 69 -58
18 -24 18 -25 -11 -81 -37 -70 -38 -100 -3 -136 23 -22 34 -26 62 -21 47 7 71
32 71 73 0 28 6 37 32 51 52 28 78 58 78 92 0 43 -23 73 -94 124 -96 68 -166
152 -166 198 0 6 30 -19 68 -56 37 -37 99 -92 139 -122 84 -63 90 -77 92 -187
1 -62 41 -107 93 -107 45 0 61 28 64 109 2 64 14 84 41 74 7 -3 16 -18 21 -34
10 -41 3 -117 -11 -116 -35 1 -46 -6 -57 -33 -11 -26 -10 -33 4 -49 9 -10 30
-21 45 -24 16 -3 40 -9 54 -12 18 -5 31 0 50 18 25 23 32 24 143 21 68 -2 122
-8 130 -15 23 -19 17 -86 -13 -143 -16 -28 -32 -54 -37 -57 -9 -7 -200 -2
-253 7 -18 2 -46 17 -64 31 -37 31 -104 44 -151 29 -28 -9 -35 -19 -48 -59
-17 -53 -16 -53 -77 -37 -39 9 -43 13 -43 40 0 50 -27 67 -119 75 -77 7 -82 9
-100 39 -10 17 -21 43 -25 58 -11 48 -38 56 -202 63 -150 6 -152 6 -181 -19
-16 -14 -48 -27 -74 -31 -105 -15 -184 -48 -225 -93 -49 -55 -75 -110 -78
-164 -4 -76 -11 -90 -58 -117 -51 -27 -141 -133 -171 -199 -19 -43 -21 -65
-22 -257 0 -294 1 -300 117 -463 149 -211 166 -223 301 -226 133 -3 184 6 244
46 29 19 70 41 92 48 37 12 45 11 98 -12 32 -14 81 -33 108 -42 81 -26 91 -53
85 -231 -4 -108 -3 -113 40 -156 49 -50 65 -104 76 -259 5 -74 5 -77 -41 -169
-80 -163 -96 -272 -61 -408 8 -32 18 -80 21 -108 10 -90 14 -109 38 -212 13
-56 22 -105 18 -110 -12 -19 -117 -90 -151 -103 -42 -16 -140 -80 -140 -90 0
-5 -17 -16 -37 -27 -21 -10 -59 -31 -85 -46 -26 -16 -57 -28 -70 -29 -30 0
-268 -99 -263 -109 8 -11 -23 -19 -54 -13 -17 4 -32 1 -36 -6 -5 -9 -1 -10 14
-5 11 3 21 4 21 1 0 -8 -102 -34 -205 -50 -55 -9 -124 -24 -153 -32 -30 -8
-73 -16 -97 -17 -24 -1 -41 -5 -39 -9 2 -4 0 -9 -6 -13 -5 -3 -10 -2 -10 4 0
11 -26 9 -37 -4 -4 -4 -1 -5 7 0 10 5 12 5 5 -3 -13 -13 -85 -23 -85 -11 0 5
5 9 12 9 6 0 8 3 4 7 -4 5 -14 0 -21 -11 -10 -13 -23 -17 -44 -14 -17 3 -31 1
-31 -4 0 -4 -8 -8 -17 -8 -15 0 -16 2 -3 10 10 7 -2 8 -40 4 -98 -10 -125 -10
-139 1 -11 7 -13 7 -7 -2 4 -7 2 -13 -3 -13 -6 0 -11 3 -11 8 0 11 -113 7
-117 -5 -5 -13 -83 -8 -173 11 -36 8 -81 13 -100 12 -19 -2 -60 3 -90 10 -30
7 -64 13 -75 13 -17 1 -18 -1 -5 -10 12 -8 10 -9 -8 -4 -12 4 -46 8 -75 10
-28 2 -73 11 -99 19 -26 8 -59 13 -72 10 -38 -7 -67 27 -59 68 8 46 26 78 62
112 17 17 31 37 31 45 0 36 25 64 59 68 76 8 111 51 90 112 -7 18 -6 37 1 55
9 23 14 27 33 21 12 -4 40 -8 62 -9 52 -1 68 26 59 106 l-5 57 35 15 c41 17
56 47 56 109 0 69 20 87 130 117 33 9 60 28 106 75 75 77 90 126 94 307 0 10
20 40 45 68 49 55 51 62 59 169 12 154 -18 189 -220 260 -84 30 -175 54 -225
61 -125 17 -138 19 -159 32 -19 12 -23 24 -35 104 -12 76 -89 140 -198 164
-158 34 -187 47 -187 85 0 33 -36 72 -73 81 -17 4 -71 8 -119 9 -82 1 -88 3
-123 33 -54 48 -84 44 -153 -21 -31 -29 -79 -71 -105 -92 l-48 -38 -15 22
c-50 70 -58 75 -121 73 -73 -3 -81 5 -84 81 -3 72 -33 128 -74 140 -17 5 -41
12 -55 16 -19 5 -24 13 -23 31 8 89 6 101 -14 127 -18 25 -27 28 -71 27 -64
-2 -100 -24 -148 -90 -22 -30 -45 -56 -53 -59 -24 -9 -49 5 -56 32 -12 48 -6
291 7 313 26 41 136 56 285 39 84 -9 118 -25 171 -79 66 -66 107 -32 115 96 5
68 26 173 46 227 6 15 32 50 58 78 55 59 57 76 29 232 0 5 24 17 55 26 69 22
163 78 206 123 21 21 41 60 55 103 23 68 24 69 60 72 57 4 221 61 251 87 55
47 23 94 -69 103 -61 6 -74 14 -74 48 0 11 -9 38 -21 59 -23 43 -16 55 31 56
14 1 52 4 85 6 77 7 111 -6 131 -50 19 -39 49 -56 99 -56 72 0 113 41 101 101
-7 35 -66 124 -101 151 -19 15 -21 23 -15 57 14 79 12 84 -117 256 -87 115
-117 136 -175 123 -88 -19 -100 -18 -130 12 -34 35 -35 44 -5 57 25 12 57 68
57 100 0 10 7 32 16 48 9 17 19 48 23 70 6 38 9 40 49 46 56 7 83 35 89 93 5
41 2 52 -24 89 -38 53 -61 106 -56 132 9 54 -33 91 -89 79 -85 -16 -90 -16
-99 -3 -5 8 -6 22 -3 32 3 11 3 38 0 62 -6 36 -12 46 -41 59 -51 24 -98 13
-168 -39 -57 -42 -64 -45 -107 -39 -44 6 -48 4 -76 -28 -16 -20 -42 -43 -57
-53 -32 -21 -86 -95 -92 -127 -7 -33 24 -74 66 -88 83 -28 152 -14 217 45 49
44 88 57 97 33 2 -7 7 -33 9 -58 4 -31 12 -50 28 -62 68 -50 71 -68 12 -68
-48 0 -97 -22 -112 -51 -21 -42 -50 -132 -45 -144 6 -17 48 -35 79 -35 32 0
73 -24 97 -55 19 -26 21 -25 -85 -49 -76 -17 -103 -98 -109 -336 -2 -81 -5
-87 -40 -106 -39 -20 -55 -56 -63 -138 -7 -70 -19 -106 -37 -106 -15 0 -39 64
-55 148 -8 40 -22 87 -31 103 -24 40 -92 71 -162 74 -31 2 -59 3 -63 4 -13 2
-9 75 8 132 13 45 29 66 94 130 61 59 81 86 95 128 20 60 41 77 108 85 27 3
56 11 65 18 26 22 62 111 62 155 0 77 -37 89 -154 49 -39 -13 -93 -27 -121
-31 -84 -10 -92 -15 -154 -84 -59 -68 -60 -68 -121 -74 -54 -5 -66 -10 -105
-46 -24 -22 -55 -43 -69 -47 -27 -7 -104 -1 -201 15 -33 6 -78 13 -100 17 -44
7 -105 29 -105 39 0 7 56 92 77 116 20 23 66 5 128 -49 26 -23 53 -42 59 -43
6 0 22 -2 36 -4 41 -6 113 16 143 44 16 14 33 45 39 69 9 35 17 46 40 54 35
12 56 51 52 95 -3 35 -14 61 -62 138 -17 28 -33 68 -37 90 -6 39 -4 41 52 91
32 28 77 63 100 77 l43 27 19 -38 c21 -40 48 -64 91 -77 14 -4 36 -16 49 -26
29 -23 43 -24 88 -2 22 10 48 36 69 69 19 29 42 55 51 58 10 3 45 4 78 2 82
-6 113 11 121 66 5 31 20 56 61 100 61 66 63 79 33 177 -11 36 -18 66 -17 66
13 10 66 22 62 15 -4 -6 -2 -10 3 -10 8 0 26 -64 38 -136 8 -53 35 -114 57
-129 44 -31 96 -17 157 41 43 40 71 51 130 50 43 -1 44 -2 53 -39 5 -22 18
-42 31 -48 11 -7 36 -22 53 -36 l33 -24 -20 -39 c-23 -44 -26 -103 -7 -117 6
-6 25 -13 41 -17 l29 -7 -26 -27 c-41 -44 -43 -67 -7 -94 37 -27 35 -43 -12
-120 -65 -105 -47 -206 55 -307 94 -94 181 -141 263 -141 34 0 48 6 73 30 38
39 69 123 77 208 9 98 20 116 74 120 24 2 59 10 77 19 36 17 73 68 73 102 0
38 19 60 78 90 68 34 147 58 217 65 70 8 104 49 95 116 -4 38 -37 53 -122 58
-55 3 -89 10 -100 20 -36 31 -17 51 57 59 54 5 139 48 152 75 23 48 44 138 45
186 0 76 -29 117 -90 126 -22 4 -31 35 -21 71 5 16 9 44 9 62 0 26 7 38 29 42
2 1 0 -6 -3 -15z m-1023 -11 c-7 -2 -19 -2 -25 0 -7 3 -2 5 12 5 14 0 19 -2
13 -5z m-79 -13 c-5 -5 -25 -13 -44 -16 -32 -7 -34 -6 -21 9 7 9 27 17 44 17
20 0 28 -3 21 -10z m1563 -16 c-3 -3 -12 -4 -19 -1 -8 3 -5 6 6 6 11 1 17 -2
13 -5z m173 -35 c71 -26 106 -56 38 -32 -23 8 -79 25 -123 39 -79 24 -79 25
-27 20 29 -3 79 -15 112 -27z m-1760 1 c0 -5 -5 -10 -11 -10 -5 0 -7 5 -4 10
3 6 8 10 11 10 2 0 4 -4 4 -10z m-525 -120 c-4 -6 -24 -18 -46 -27 -21 -8 -39
-18 -39 -23 0 -4 -28 -22 -62 -40 l-63 -32 25 27 c14 15 61 44 105 65 91 44
88 44 80 30z m-76 -106 c-11 -14 -10 -15 6 -12 14 2 21 -8 33 -49 l14 -52 -51
-51 c-28 -27 -53 -62 -56 -78 -12 -55 -16 -57 -98 -54 -74 4 -78 3 -104 -26
-16 -16 -37 -44 -48 -62 -11 -18 -30 -39 -41 -47 -19 -12 -24 -12 -38 2 -8 9
-32 22 -53 29 -28 9 -43 22 -57 51 -24 48 -20 55 80 127 94 68 206 130 184
102 -8 -11 -18 -21 -21 -24 -17 -15 -118 -168 -121 -184 -9 -49 24 -15 96 102
94 151 103 162 124 155 8 -4 13 -2 9 3 -3 5 7 9 21 8 15 0 30 4 34 9 3 6 16
11 27 12 20 2 20 1 -2 -29 -77 -101 -116 -165 -106 -172 15 -9 39 22 96 126
26 47 51 88 57 92 6 4 7 8 2 8 -9 0 12 30 21 30 3 0 0 -7 -8 -16z m2961 -49
c0 -3 -27 8 -60 25 -33 17 -60 33 -60 35 0 3 27 -8 60 -25 33 -17 60 -33 60
-35z m239 -194 c10 -7 4 -19 -28 -52 -49 -52 -83 -106 -72 -114 5 -2 37 29 71
70 l63 75 41 -33 c23 -18 58 -46 78 -62 35 -27 36 -31 21 -47 -9 -10 -13 -21
-10 -25 4 -4 13 2 20 11 11 15 18 16 34 8 47 -26 46 -36 -7 -98 -46 -55 -63
-94 -40 -94 9 0 14 6 74 93 l34 49 33 -31 c30 -27 32 -33 19 -44 -19 -15 -120
-144 -137 -174 -9 -15 -9 -24 -2 -29 6 -3 11 -4 12 -3 16 28 104 152 125 176
l27 32 25 -23 c14 -12 49 -48 79 -79 l54 -56 -36 -41 c-21 -22 -37 -46 -37
-53 1 -12 19 7 60 61 l20 27 40 -45 c90 -100 227 -274 282 -362 17 -26 17 -27
-25 -85 -56 -75 -147 -210 -167 -244 -8 -15 -23 -42 -33 -59 -34 -59 -10 -55
28 5 73 114 171 257 222 325 5 5 52 -52 53 -63 0 -5 8 -21 19 -35 10 -15 39
-66 63 -113 l46 -87 -23 -38 c-36 -59 -66 -126 -62 -138 2 -5 23 22 48 62 24
39 47 72 50 72 3 0 18 -27 33 -60 l26 -61 -40 -59 c-37 -55 -50 -90 -32 -90 4
0 25 27 46 61 l39 61 22 -54 c12 -30 39 -106 59 -169 20 -63 41 -127 47 -144
15 -44 67 -293 74 -351 3 -28 7 -59 9 -70 2 -10 7 -52 11 -92 7 -72 7 -72 -24
-101 -17 -16 -31 -36 -31 -46 0 -21 27 -74 52 -101 12 -14 19 -37 20 -68 0
-38 -4 -50 -25 -66 -43 -34 -101 -120 -89 -132 7 -7 20 3 41 33 17 24 38 54
47 67 22 32 28 22 25 -51 -1 -44 -11 -80 -32 -126 -30 -65 -37 -97 -18 -86 11
7 7 -31 -9 -90 -7 -24 -15 -31 -39 -33 -31 -3 -33 -1 -88 114 -35 73 -69 129
-90 149 -34 31 -36 37 -49 142 -9 75 -44 138 -111 202 -35 34 -69 61 -77 61
-7 1 -30 3 -50 6 -45 7 -74 -18 -84 -71 -8 -44 11 -89 77 -186 26 -38 50 -78
54 -89 4 -12 21 -47 39 -78 17 -31 38 -73 45 -92 8 -19 27 -63 43 -97 16 -34
31 -74 34 -89 9 -48 44 -121 72 -147 33 -32 89 -56 137 -59 19 -2 35 -6 35
-11 0 -15 -42 -165 -71 -254 -28 -86 -33 -93 -73 -117 -57 -33 -97 -80 -136
-159 -39 -80 -50 -154 -33 -222 12 -47 11 -52 -14 -95 -14 -25 -41 -64 -59
-87 -19 -23 -34 -46 -34 -53 0 -12 -67 -120 -75 -120 -3 0 12 33 34 73 39 74
65 142 39 103 -82 -122 -134 -210 -149 -249 -10 -27 -52 -91 -95 -143 -145
-179 -520 -542 -539 -522 -2 2 -6 15 -8 28 -3 14 -12 54 -20 90 -8 36 -18 92
-22 125 -4 33 -13 86 -21 118 -18 70 -21 209 -7 257 6 19 32 82 59 140 57 125
62 164 39 301 -22 130 -27 143 -76 196 l-40 43 6 113 c6 109 6 114 -22 167
l-28 54 -129 54 c-125 52 -131 53 -173 41 -24 -6 -76 -32 -116 -56 l-72 -45
-104 1 c-152 3 -159 7 -299 203 -64 88 -87 132 -97 184 -10 51 -7 401 4 441
18 67 132 203 170 203 34 0 63 54 69 128 5 71 26 115 78 164 39 36 84 54 174
67 51 8 82 19 97 33 18 17 33 21 70 19 27 -2 82 -4 123 -5 94 -4 87 -1 94 -32
10 -37 55 -102 76 -109 33 -11 65 -15 112 -16 46 -2 47 -3 60 -43 12 -37 18
-43 63 -57 28 -9 50 -20 50 -25 0 -10 -31 -66 -163 -299 -96 -168 -272 -508
-272 -524 0 -18 20 -13 27 7 4 9 47 89 97 177 49 88 144 268 211 399 120 239
120 239 154 242 37 2 58 22 68 64 3 14 10 31 16 38 16 20 59 14 88 -14 35 -34
88 -45 238 -49 137 -5 191 8 191 43 0 11 10 32 22 48 12 15 23 39 25 53 9 114
-1 151 -51 175 -20 9 -80 17 -166 22 -74 3 -137 8 -139 10 -3 3 -8 61 -10 123
-1 23 -11 43 -35 67 -42 42 -82 45 -123 10 -25 -22 -28 -30 -28 -90 0 -53 -3
-66 -14 -64 -11 2 -16 20 -18 62 -4 86 -35 140 -112 201 -35 28 -100 85 -143
128 -87 85 -109 92 -154 54 l-27 -23 17 -50 c25 -76 56 -115 161 -198 52 -43
95 -83 95 -90 0 -8 -15 -21 -34 -30 -41 -20 -76 -60 -76 -90 0 -31 -13 -46
-29 -36 -11 6 -9 16 11 52 32 53 42 109 26 143 -6 14 -30 36 -52 49 -66 39
-116 91 -116 119 0 31 -7 34 -100 33 -71 -1 -78 -3 -135 -42 -73 -51 -140
-116 -161 -156 -10 -20 -14 -46 -11 -76 7 -71 -11 -83 -131 -81 -53 1 -104 3
-113 6 -14 3 -17 21 -18 107 -1 104 6 125 37 120 6 -1 19 -2 29 -3 14 -1 14
-3 -2 -21 -10 -11 -16 -23 -13 -26 3 -3 15 6 26 20 11 15 29 26 40 26 18 0 17
-3 -10 -32 -44 -47 -82 -107 -74 -116 8 -7 41 28 93 101 24 34 40 46 67 51 42
8 56 30 56 86 0 58 -30 111 -79 138 -23 13 -39 28 -35 33 3 5 39 32 81 60 41
28 83 58 92 67 10 10 33 31 51 47 l34 30 -36 -45 c-70 -89 -107 -170 -77 -170
12 0 159 247 159 268 0 11 7 36 15 56 12 27 20 36 33 32 9 -3 31 -7 49 -8 37
-3 38 -1 -43 -113 -98 -137 -204 -295 -204 -305 0 -33 30 0 127 143 60 89 122
186 138 215 15 28 31 52 34 52 115 7 201 9 201 4 0 -7 -111 -167 -121 -174
-14 -10 -111 -201 -105 -207 8 -8 7 -9 50 72 20 39 70 117 111 174 41 58 77
113 81 123 3 11 22 22 49 29 65 16 89 48 89 114 l1 55 38 0 38 0 -21 -29 c-11
-16 -16 -32 -12 -35 11 -7 56 56 106 147 21 37 44 67 51 67 20 0 55 63 55 99
0 38 -33 106 -55 115 -28 10 -61 -4 -79 -35 -9 -16 -26 -34 -37 -40 -28 -15
-77 -2 -95 26 -14 22 -14 30 6 98 47 170 24 261 -61 242 -72 -16 -115 -89
-118 -198 -1 -20 -8 -30 -26 -37 -34 -13 -50 -56 -31 -84 13 -19 11 -24 -21
-58 -20 -21 -32 -41 -28 -48 4 -7 18 4 37 30 l31 42 24 -24 c13 -13 25 -35 28
-48 5 -27 -19 -70 -39 -70 -27 0 -56 -35 -62 -75 -6 -45 -15 -57 -43 -62 -17
-2 -19 4 -20 56 0 33 -7 75 -15 95 -21 50 -52 56 -120 20 -29 -15 -59 -25 -68
-22 -8 4 -22 22 -31 41 -38 78 -11 147 92 242 23 21 30 24 25 11 -11 -30 17
-38 40 -12 123 136 309 363 340 414 32 53 -201 -167 -269 -254 -57 -72 -66
-79 -26 -18 34 51 41 69 42 115 1 82 26 148 72 197 23 23 47 42 54 42 7 0 21
9 30 20 20 22 22 23 42 11z m-3071 -173 c5 -7 9 -39 9 -71 -1 -45 3 -62 19
-78 27 -26 49 -29 103 -13 25 7 48 11 52 8 4 -2 10 -19 14 -37 10 -49 26 -89
50 -122 50 -68 40 -115 -23 -115 -52 0 -71 -17 -78 -69 -3 -24 -15 -58 -25
-75 -10 -17 -19 -45 -19 -63 0 -32 -21 -63 -44 -63 -8 0 -26 15 -42 34 -32 36
-82 66 -113 66 -28 0 -33 12 -20 51 16 46 34 58 86 57 50 -1 79 19 88 62 6 28
-17 90 -33 90 -15 1 -43 29 -46 46 -2 11 -6 35 -10 54 -4 25 -16 42 -41 59
-45 30 -74 23 -143 -36 -44 -37 -63 -47 -101 -51 -51 -5 -91 10 -91 32 0 8 18
31 41 52 22 22 55 54 74 72 29 29 36 32 54 22 28 -15 51 -7 108 39 81 63 110
74 131 49z m-893 -273 c47 -70 49 -95 6 -116 -36 -17 -60 -51 -61 -86 0 -30
-40 -72 -70 -74 -58 -3 -74 3 -117 45 -25 25 -58 48 -75 51 l-29 7 38 46 c20
26 70 81 110 123 40 41 86 90 100 108 l27 33 19 -44 c10 -23 33 -65 52 -93z
m-201 47 c3 -5 -8 -19 -25 -31 l-30 -23 16 31 c15 31 29 39 39 23z m796 -252
c0 -23 -29 -100 -39 -101 -83 -10 -136 -26 -154 -46 -8 -10 -25 -44 -37 -75
-17 -45 -34 -69 -81 -110 -93 -81 -124 -145 -128 -265 -3 -90 10 -103 106
-107 66 -3 124 -23 139 -48 4 -6 13 -47 20 -91 16 -99 49 -169 87 -181 67 -23
111 30 122 149 7 71 22 99 56 110 35 11 47 55 53 189 7 130 17 202 33 216 14
14 115 39 132 33 9 -3 30 -21 46 -40 43 -49 96 -65 155 -47 25 8 50 14 57 14
22 0 202 -240 205 -272 1 -13 -4 -40 -11 -60 -14 -43 -5 -67 31 -86 30 -17
100 -111 96 -131 -6 -29 -88 -25 -88 4 0 8 -13 29 -29 47 -28 32 -31 32 -119
34 -50 1 -110 -3 -134 -8 -24 -6 -52 -10 -63 -10 -28 1 -65 -25 -65 -47 0 -11
16 -38 35 -61 28 -34 35 -50 35 -85 0 -59 20 -72 114 -74 53 -1 40 -11 -67
-47 -80 -28 -94 -30 -120 -19 -16 7 -38 10 -48 8 -22 -6 -46 -64 -55 -133 -4
-33 -15 -59 -28 -72 -35 -34 -118 -84 -171 -103 -27 -9 -62 -22 -77 -27 -29
-11 -51 -56 -37 -79 8 -16 23 -102 21 -129 0 -9 -17 -33 -36 -54 -20 -21 -43
-51 -52 -68 -22 -43 -54 -173 -61 -248 -3 -36 -7 -67 -9 -69 -2 -3 -17 7 -32
22 -30 29 -91 57 -137 63 -80 11 -225 12 -270 2 -58 -12 -112 -49 -126 -86
-10 -25 -13 -267 -5 -329 7 -45 26 -71 65 -86 46 -19 76 -11 114 31 89 100
104 112 137 112 l33 0 -7 -47 c-8 -47 -10 -77 -7 -100 1 -14 73 -39 118 -42
23 -2 43 -59 43 -120 0 -49 4 -65 24 -87 21 -25 29 -28 85 -26 66 1 64 2 117
-65 15 -20 35 -33 48 -33 27 0 111 61 187 136 l57 55 26 -25 c36 -36 59 -43
151 -44 125 -2 145 -10 145 -59 0 -27 30 -60 68 -74 15 -6 68 -21 119 -34 51
-12 109 -31 130 -42 45 -23 72 -71 75 -132 2 -50 24 -82 71 -105 34 -16 56
-20 152 -30 126 -14 353 -92 385 -133 18 -23 20 -38 17 -120 l-3 -93 -42 -39
c-52 -49 -60 -70 -63 -167 -3 -117 -14 -147 -77 -209 -39 -38 -65 -55 -91 -60
-47 -8 -109 -43 -133 -76 -12 -15 -20 -45 -22 -75 -2 -54 -10 -74 -30 -74 -35
0 -70 -80 -57 -127 13 -45 4 -54 -32 -32 -44 26 -64 24 -99 -12 -30 -29 -30
-33 -26 -99 6 -76 9 -72 -63 -84 -43 -7 -52 -17 -69 -70 -7 -22 -25 -51 -40
-66 -36 -36 -58 -78 -66 -129 -7 -41 -7 -42 -43 -36 -49 8 -58 19 -43 58 12
32 8 30 -23 -16 -7 -10 -21 -13 -47 -10 -47 6 -52 27 -42 171 15 201 10 558
-10 650 -31 153 -59 196 -183 287 -89 66 -190 179 -247 276 -27 46 -74 119
-103 163 -29 43 -53 87 -53 98 0 11 14 49 32 86 45 93 49 163 12 218 -36 55
-71 74 -145 78 -57 3 -65 6 -93 38 -17 19 -58 66 -90 103 -33 37 -87 85 -120
107 l-60 38 -180 -2 c-232 -4 -247 1 -287 86 -16 33 -42 124 -60 201 -17 77
-38 155 -46 173 -21 44 -56 66 -105 66 -59 0 -82 -31 -73 -99 12 -98 13 -145
4 -139 -21 12 -42 72 -51 142 -18 152 -72 193 -220 173 -30 -4 -60 -5 -67 -3
-8 3 -11 43 -11 145 l1 142 35 53 c37 56 35 66 -4 30 l-25 -23 6 71 c19 212
65 434 105 500 50 83 122 226 107 214 -8 -6 -35 -50 -61 -96 -26 -46 -49 -82
-51 -80 -6 6 86 281 128 381 71 173 257 521 288 539 5 4 30 -3 55 -14 26 -11
69 -22 96 -25 27 -3 86 -12 132 -20 149 -27 216 -16 273 42 29 30 42 36 85 39
63 3 107 30 156 94 40 53 46 56 109 65 71 11 79 13 135 33 72 25 80 26 80 2z
m3636 -228 c-18 -16 -18 -16 -6 6 6 13 14 21 18 18 3 -4 -2 -14 -12 -24z
m-666 -381 c-5 -11 -15 -23 -21 -27 -6 -3 -3 5 6 20 20 30 30 35 15 7z m-4423
-175 c-12 -30 -23 -53 -25 -51 -5 5 32 105 39 105 4 0 -2 -24 -14 -54z m-180
-508 c-3 -8 -6 -5 -6 6 -1 11 2 17 5 13 3 -3 4 -12 1 -19z m3 -90 c0 -28 -2
-49 -4 -47 -9 9 -13 99 -5 99 5 0 9 -23 9 -52z m5461 -27 c21 -19 21 -19 -22
-8 -39 10 -40 17 -1 26 2 1 12 -8 23 -18z m432 -470 c71 -67 80 -89 93 -216 8
-79 18 -103 50 -117 20 -10 40 -42 84 -134 61 -129 85 -154 145 -154 25 0 26
-2 24 -50 -2 -42 -6 -51 -24 -56 -30 -7 -71 2 -108 25 -40 25 -50 41 -71 114
-9 32 -30 84 -46 116 -17 32 -30 61 -30 65 0 11 -42 99 -65 136 -12 19 -26 46
-30 60 -4 14 -22 45 -39 70 -79 111 -106 181 -73 193 21 7 40 -4 90 -52z
m-5698 -301 c9 -17 18 -49 21 -73 13 -115 26 -150 72 -199 70 -76 139 22 106
150 -15 55 -12 72 10 72 34 0 60 -71 105 -290 17 -80 70 -180 109 -207 49 -33
145 -41 330 -29 81 5 99 3 135 -15 56 -27 70 -39 161 -147 43 -51 89 -100 102
-109 14 -9 50 -16 84 -18 65 -2 86 -14 107 -63 16 -38 10 -66 -30 -146 -46
-93 -42 -129 25 -229 31 -45 74 -114 97 -153 37 -66 109 -162 156 -209 38 -39
168 -145 177 -145 9 0 23 -12 45 -40 38 -50 75 -258 75 -435 1 -115 -19 -456
-27 -482 -3 -7 1 -13 7 -13 6 0 9 -2 6 -5 -3 -3 -13 -2 -22 1 -11 4 -14 9 -7
13 6 4 -38 22 -99 41 -60 18 -110 36 -110 39 0 4 -16 13 -35 20 -19 7 -33 16
-31 20 3 4 -14 16 -37 26 -23 10 -58 30 -77 45 -19 15 -82 51 -139 81 -56 30
-114 64 -127 76 -13 12 -24 20 -24 17 0 -6 -82 50 -102 69 -7 7 -49 41 -93 76
-44 35 -100 84 -123 110 -24 25 -41 40 -37 34 12 -24 -10 -13 -52 27 -24 21
-43 45 -43 52 0 7 -25 33 -56 58 -64 51 -96 88 -88 101 3 5 -2 9 -11 9 -9 0
-13 5 -10 10 6 10 -76 117 -149 193 -20 21 -36 44 -36 51 0 7 -13 25 -30 41
-26 25 -68 89 -132 199 -35 60 -148 286 -144 286 3 0 -13 39 -35 86 -21 48
-33 81 -25 75 12 -10 13 -9 9 8 -3 12 -9 19 -13 16 -5 -3 -6 3 -3 13 2 10 -2
34 -11 53 l-15 34 5 -35 c4 -29 1 -26 -16 20 -27 72 -52 157 -56 195 -1 17
-12 55 -23 85 -11 30 -20 74 -19 98 1 26 -3 47 -11 51 -7 5 -12 11 -11 15 1 3
-3 34 -9 69 -14 76 -18 109 -27 217 -3 47 -7 89 -8 94 0 5 17 11 39 13 22 2
45 6 50 8 6 2 31 4 57 4 43 1 49 -2 63 -29z m5905 -985 c-5 -14 -18 -43 -29
-66 -15 -31 -17 -39 -6 -35 8 3 1 -13 -15 -36 -17 -23 -30 -50 -30 -62 0 -16
-3 -17 -9 -7 -17 27 21 134 72 203 26 34 29 35 17 3z"/>
<path d="M5416 8285 c-22 -30 -47 -63 -57 -74 -79 -84 -341 -451 -458 -639
-49 -80 -59 -102 -45 -102 10 0 26 22 121 165 48 72 155 226 239 342 186 258
257 363 247 363 -4 0 -26 -25 -47 -55z"/>
<path d="M5552 8283 c-134 -194 -202 -300 -202 -318 0 -3 7 -5 15 -5 8 0 22
15 31 33 9 17 20 34 23 37 6 5 11 14 53 89 11 20 23 41 27 46 17 22 82 145 77
145 -2 0 -13 -12 -24 -27z"/>
<path d="M5640 8215 c-13 -14 -21 -27 -18 -30 2 -3 15 6 28 20 13 14 21 27 18
30 -2 3 -15 -6 -28 -20z"/>
<path d="M5215 7860 c-14 -22 -25 -42 -25 -45 0 -3 -47 -76 -104 -163 -106
-160 -196 -306 -196 -316 0 -19 22 1 51 47 18 28 69 106 112 171 43 66 106
170 139 233 59 112 71 149 23 73z"/>
<path d="M5336 7818 c-11 -18 -34 -52 -53 -75 -31 -39 -43 -73 -25 -73 9 0 61
78 91 138 25 49 14 57 -13 10z"/>
<path d="M4110 8320 c-8 -5 -10 -10 -5 -10 6 0 17 5 25 10 8 5 11 10 5 10 -5
0 -17 -5 -25 -10z"/>
<path d="M3409 7746 c-90 -62 -98 -157 -16 -201 22 -12 37 -27 37 -38 0 -33
57 -77 99 -77 73 1 94 43 86 169 -9 124 -10 127 -55 145 -73 29 -111 30 -151
2z m136 -75 c10 -33 10 -160 -1 -171 -18 -18 -40 -2 -52 37 -9 29 -8 40 3 57
19 27 19 42 0 26 -8 -7 -15 -19 -15 -26 0 -8 -3 -14 -7 -14 -17 0 -73 41 -73
53 0 20 30 58 53 66 27 10 85 -8 92 -28z"/>
<path d="M3450 7651 c-6 -12 -7 -21 -1 -21 10 0 24 30 17 37 -2 3 -9 -5 -16
-16z"/>
<path d="M5975 7710 c-25 -40 -26 -40 -83 -39 -31 1 -74 8 -96 15 -95 34 -137
5 -150 -101 -4 -27 -8 -59 -10 -70 -5 -32 12 -53 65 -80 27 -14 67 -41 88 -60
43 -39 79 -55 104 -46 25 9 97 81 97 98 0 7 25 39 56 71 31 31 63 66 70 77 33
51 19 105 -39 149 -48 37 -72 34 -102 -14z m95 -81 c0 -9 -23 -41 -50 -69 -28
-29 -66 -76 -86 -105 -19 -29 -42 -56 -50 -59 -10 -4 -31 7 -56 30 -22 20 -61
45 -85 56 l-45 20 7 51 c7 45 11 74 14 85 1 1 9 -2 19 -7 9 -5 56 -12 104 -16
100 -8 148 3 173 41 16 25 17 25 36 8 10 -9 19 -25 19 -35z"/>
<path d="M5956 7575 c-3 -8 -1 -15 4 -15 6 0 10 7 10 15 0 8 -2 15 -4 15 -2 0
-6 -7 -10 -15z"/>
<path d="M5780 7559 c-13 -24 -4 -41 10 -19 10 16 13 40 5 40 -2 0 -9 -9 -15
-21z"/>
<path d="M5826 7548 c-9 -12 -14 -24 -11 -26 6 -7 24 8 35 29 15 27 -5 25 -24
-3z"/>
<path d="M5882 7525 c-23 -48 -21 -75 4 -54 14 11 29 70 22 89 -2 6 -14 -10
-26 -35z"/>
<path d="M6383 7292 c-95 -54 -113 -68 -121 -92 -14 -37 9 -74 57 -93 47 -19
71 -50 71 -92 l-1 -30 -15 28 c-23 43 -50 48 -107 19 -70 -37 -79 -56 -80
-161 -1 -161 58 -187 161 -71 l31 35 -6 -43 c-14 -104 95 -109 218 -10 87 70
91 138 14 243 -12 17 -44 73 -70 125 -72 142 -102 170 -152 142z m45 -74 c5
-7 29 -51 52 -98 24 -47 61 -109 82 -139 22 -31 38 -66 38 -82 0 -31 -46 -76
-109 -109 -50 -25 -63 -13 -51 50 5 25 9 85 10 133 0 115 -15 148 -82 181 -49
25 -49 25 -26 39 64 40 71 42 86 25z m-106 -286 c0 -56 -9 -92 -22 -92 -5 0
-6 7 -3 17 4 11 3 14 -5 9 -7 -4 -12 -18 -12 -31 0 -12 -7 -26 -15 -29 -14 -5
-15 5 -13 71 3 73 4 77 33 93 17 10 31 16 33 15 2 -2 3 -25 4 -53z"/>
<path d="M6465 7050 c-3 -5 -1 -10 4 -10 6 0 11 5 11 10 0 6 -2 10 -4 10 -3 0
-8 -4 -11 -10z"/>
<path d="M6493 6972 c-25 -43 -29 -62 -13 -62 12 0 42 69 38 88 -2 8 -13 -4
-25 -26z"/>
<path d="M6518 6890 c-29 -52 -34 -70 -20 -70 12 0 54 88 50 105 -2 8 -15 -8
-30 -35z"/>
<path d="M6280 6925 c0 -8 2 -15 4 -15 2 0 6 7 10 15 3 8 1 15 -4 15 -6 0 -10
-7 -10 -15z"/>
<path d="M3598 8018 c-36 -48 -40 -57 -32 -69 6 -10 40 40 57 84 10 25 2 21
-25 -15z"/>
<path d="M7591 7616 c-18 -19 -28 -36 -23 -40 6 -3 25 12 42 34 39 49 26 53
-19 6z"/>
<path d="M6990 7479 c-30 -27 -65 -57 -77 -66 -23 -15 -31 -43 -14 -43 11 0
129 118 142 142 14 26 10 23 -51 -33z"/>
<path d="M7778 7405 c-10 -13 -18 -26 -18 -30 0 -3 -22 -38 -48 -78 -27 -40
-52 -79 -55 -87 -4 -8 -29 -49 -56 -90 -28 -41 -62 -97 -77 -125 -14 -27 -73
-120 -129 -205 -114 -173 -138 -216 -132 -233 4 -13 231 324 278 413 16 30 39
70 50 89 86 143 189 323 189 331 0 4 5 10 12 12 6 2 9 9 7 15 -2 6 -12 1 -21
-12z"/>
<path d="M6999 7381 c-13 -11 -20 -23 -16 -27 4 -4 20 4 35 19 30 31 16 37
-19 8z"/>
<path d="M7861 7299 c-28 -30 -85 -115 -211 -309 -58 -91 -143 -216 -188 -278
-134 -182 -162 -233 -129 -231 6 0 43 46 80 102 37 56 113 166 167 245 55 78
132 197 171 265 40 67 84 140 98 162 41 62 42 65 37 65 -3 0 -14 -10 -25 -21z"/>
<path d="M7940 7156 c-8 -13 -25 -36 -38 -52 -12 -16 -60 -85 -105 -154 -46
-69 -131 -192 -190 -274 -99 -136 -128 -188 -114 -202 3 -3 21 18 40 48 19 29
81 117 138 195 57 78 121 170 142 205 21 35 63 103 93 152 30 49 53 93 52 98
-2 5 -10 -2 -18 -16z"/>
<path d="M8062 6923 c-58 -71 -94 -131 -81 -139 13 -7 7 -14 59 71 24 39 52
80 63 93 11 12 16 22 10 22 -6 0 -29 -21 -51 -47z"/>
<path d="M7357 6888 c-77 -106 -147 -210 -147 -218 0 -22 17 -7 49 43 103 156
163 264 98 175z"/>
<path d="M8131 6805 c-29 -30 -49 -60 -46 -65 4 -6 10 -8 14 -5 15 9 94 116
89 120 -3 3 -28 -20 -57 -50z"/>
<path d="M7046 6782 c-22 -31 -72 -97 -112 -147 -63 -79 -104 -142 -104 -160
0 -17 29 0 44 28 10 17 44 66 76 107 95 125 160 233 138 230 -2 -1 -21 -26
-42 -58z"/>
<path d="M7949 6634 c-40 -25 -56 -31 -70 -24 -10 6 -33 10 -51 10 -46 0 -100
-65 -103 -124 -2 -22 -8 -54 -14 -71 -27 -67 9 -95 126 -96 55 -1 80 3 91 14
13 14 18 13 43 -5 44 -33 118 -35 169 -7 78 44 85 105 16 138 -23 12 -47 21
-52 21 -6 0 -10 24 -10 54 1 47 -3 59 -28 84 -41 43 -58 44 -117 6z m80 -83
c0 -14 -4 -35 -8 -46 -14 -34 7 -62 55 -74 66 -17 67 -33 4 -51 -24 -7 -38 -2
-82 26 -63 40 -75 41 -110 11 -20 -18 -35 -22 -67 -19 l-42 4 26 24 c30 28 31
34 5 62 -11 12 -20 23 -20 25 0 11 67 30 100 29 27 -2 47 5 76 26 44 33 64 27
63 -17z"/>
<path d="M6650 6589 c0 -5 5 -7 10 -4 6 3 10 8 10 11 0 2 -4 4 -10 4 -5 0 -10
-5 -10 -11z"/>
<path d="M7637 6498 c-44 -54 -60 -85 -48 -92 5 -3 21 15 36 41 15 27 35 56
43 66 8 9 13 20 10 23 -3 3 -21 -14 -41 -38z"/>
<path d="M6702 6333 c-32 -47 -38 -60 -21 -46 15 13 53 73 45 73 -2 0 -13 -12
-24 -27z"/>
<path d="M8413 6317 c-55 -61 -271 -357 -281 -386 -15 -44 5 -37 31 10 11 19
43 63 71 99 68 85 210 290 204 296 -3 2 -14 -6 -25 -19z"/>
<path d="M7896 6255 c-31 -33 -42 -63 -28 -77 7 -7 19 6 37 42 30 60 27 74 -9
35z"/>
<path d="M7796 6245 c-10 -14 -16 -29 -13 -31 7 -8 39 35 35 47 -2 7 -12 0
-22 -16z"/>
<path d="M8006 6225 c-17 -17 -22 -45 -8 -45 11 0 37 48 30 55 -3 3 -13 -1
-22 -10z"/>
<path d="M6567 6208 c-8 -13 -29 -38 -46 -57 -17 -19 -29 -37 -26 -39 7 -8 53
38 77 76 23 37 19 55 -5 20z"/>
<path d="M6600 6135 c-7 -9 -11 -18 -8 -20 3 -3 11 1 18 10 7 9 11 18 8 20 -3
3 -11 -1 -18 -10z"/>
<path d="M8359 6009 c-39 -55 -77 -106 -83 -112 -30 -32 -136 -171 -136 -178
0 -21 21 -5 67 49 66 76 129 161 189 252 58 88 59 90 46 90 -6 0 -43 -45 -83
-101z"/>
<path d="M6696 5853 c-6 -16 -66 -118 -291 -498 -128 -216 -172 -299 -181
-343 -10 -51 14 -48 37 4 24 57 64 123 174 294 111 171 179 295 241 442 41 98
44 107 35 113 -5 3 -12 -3 -15 -12z"/>
<path d="M6855 5810 c-8 -26 -353 -596 -450 -745 -96 -147 -120 -194 -103
-205 3 -3 22 25 42 62 19 37 71 120 114 185 245 367 448 723 412 723 -5 0 -12
-9 -15 -20z"/>
<path d="M8356 5749 c-43 -47 -58 -79 -37 -79 4 0 20 17 34 38 15 20 36 49 47
65 37 46 5 30 -44 -24z"/>
<path d="M6465 5743 c-35 -46 -40 -68 -10 -43 17 14 59 90 51 90 -3 0 -21 -21
-41 -47z"/>
<path d="M6973 5763 c-4 -10 -57 -94 -119 -188 -98 -150 -161 -254 -259 -430
-15 -27 -84 -160 -152 -294 -110 -217 -135 -277 -103 -245 11 11 109 179 203
349 33 61 132 234 220 385 185 320 241 426 227 435 -6 4 -13 -2 -17 -12z"/>
<path d="M6518 5708 c-25 -35 -65 -88 -88 -118 -35 -46 -102 -148 -153 -235
-7 -11 -20 -32 -30 -47 -34 -52 -78 -149 -72 -159 9 -14 32 7 58 54 12 22 27
47 32 56 6 9 50 84 99 166 50 83 100 164 112 180 40 54 101 165 91 165 -2 0
-24 -28 -49 -62z"/>
<path d="M7100 5688 c0 -7 -20 -41 -43 -77 -103 -156 -159 -251 -307 -521 -35
-63 -81 -146 -102 -185 -47 -84 -158 -309 -158 -319 0 -20 24 12 54 72 55 111
88 169 210 366 64 104 116 190 116 193 0 2 10 20 23 41 13 20 50 87 82 147 32
61 80 152 107 203 37 69 46 92 34 92 -9 0 -16 -5 -16 -12z"/>
<path d="M7557 5658 c-85 -138 -220 -385 -372 -683 -70 -137 -143 -277 -161
-311 -35 -63 -41 -79 -25 -70 9 6 42 63 113 196 102 189 122 226 129 235 4 6
62 118 129 250 67 132 142 277 167 323 24 45 42 82 39 82 -3 0 -12 -10 -19
-22z"/>
<path d="M7728 5628 c-20 -16 -173 -246 -271 -410 -64 -106 -257 -483 -257
-502 0 -3 6 -6 14 -6 7 0 27 26 43 58 37 71 58 108 113 197 72 118 198 342
277 495 42 80 83 153 91 163 18 20 13 22 -10 5z"/>
<path d="M8393 5593 c-46 -55 -93 -124 -93 -135 0 -5 6 -8 13 -8 6 0 32 33 56
73 24 39 53 82 64 95 11 12 16 22 10 22 -6 0 -29 -21 -50 -47z"/>
<path d="M7181 5556 c-71 -114 -107 -179 -213 -386 -109 -211 -183 -346 -203
-370 -7 -8 -24 -37 -39 -64 -35 -62 -31 -98 4 -39 14 23 61 102 104 175 44 73
86 144 93 158 8 14 34 61 58 105 77 138 246 476 243 485 -2 4 -23 -24 -47 -64z"/>
<path d="M8482 5477 c-46 -46 -67 -88 -44 -87 12 1 111 140 99 140 -1 0 -26
-24 -55 -53z"/>
<path d="M6216 5371 c-20 -39 -32 -71 -27 -71 10 0 74 131 67 138 -3 2 -21
-28 -40 -67z"/>
<path d="M7738 5393 c-50 -57 -467 -838 -454 -851 9 -9 20 6 61 83 21 39 71
130 112 203 40 73 107 201 149 285 90 182 111 222 136 265 22 35 20 42 -4 15z"/>
<path d="M7875 5326 c-54 -111 -185 -360 -254 -481 -62 -110 -57 -102 -124
-214 -86 -146 -138 -261 -119 -261 5 0 20 26 33 57 12 31 79 149 147 262 191
317 247 420 326 604 48 114 43 138 -9 33z"/>
<path d="M7980 5180 c0 -32 -143 -305 -232 -443 -46 -70 -122 -187 -169 -260
-97 -149 -126 -199 -157 -276 -41 -99 -21 -114 24 -19 16 34 87 150 158 257
171 259 253 403 324 574 64 154 75 187 61 187 -5 0 -9 -9 -9 -20z"/>
<path d="M8051 4968 c-22 -60 -160 -332 -218 -428 -31 -52 -108 -176 -171
-275 -116 -181 -245 -419 -275 -507 -13 -41 -14 -48 -1 -48 8 0 14 7 14 15 0
32 130 267 246 445 148 227 245 394 306 525 52 114 121 295 115 301 -2 3 -10
-10 -16 -28z"/>
<path d="M8128 4690 c-43 -65 -120 -189 -171 -276 -51 -88 -134 -224 -184
-304 -150 -241 -257 -450 -298 -586 -17 -57 -19 -74 -6 -74 5 0 15 17 22 38
38 119 136 298 324 592 115 180 137 219 245 425 35 66 83 158 107 204 24 46
42 87 41 91 -2 4 -38 -45 -80 -110z"/>
<path d="M8387 4598 c-52 -70 -82 -154 -46 -133 13 8 87 165 77 165 -4 0 -18
-15 -31 -32z"/>
<path d="M8233 4582 c-6 -4 -65 -115 -131 -247 -107 -213 -145 -285 -232 -440
-12 -22 -89 -154 -172 -292 -151 -256 -223 -394 -234 -451 -13 -63 16 -31 71
78 59 118 131 245 214 379 28 45 51 84 51 87 0 2 17 32 38 66 110 180 224 408
327 653 25 61 55 125 65 143 11 17 18 32 17 32 -1 0 -7 -4 -14 -8z"/>
<path d="M7256 4254 c-41 -61 -43 -85 -3 -32 22 29 52 88 44 88 -2 0 -20 -25
-41 -56z"/>
<path d="M7896 3706 c-3 -13 -51 -91 -106 -174 -96 -145 -117 -188 -86 -176
23 9 109 140 159 241 52 105 62 133 49 133 -6 0 -13 -11 -16 -24z"/>
<path d="M7286 3506 c-9 -19 -16 -40 -15 -48 0 -7 9 7 20 31 23 52 19 67 -5
17z"/>
<path d="M7351 3323 c0 -13 -21 -53 -46 -89 -44 -63 -50 -84 -29 -91 16 -5 86
143 81 174 -3 22 -4 23 -6 6z"/>
<path d="M7373 2980 c-14 -36 -1 -40 15 -5 14 31 15 35 4 35 -4 0 -13 -13 -19
-30z"/>
<path d="M4061 7774 c-32 -49 -34 -67 -5 -43 18 15 48 78 41 86 -3 2 -19 -17
-36 -43z"/>
<path d="M3937 7721 c-19 -32 -21 -41 -9 -41 5 0 16 16 25 35 20 42 8 47 -16
6z"/>
<path d="M3831 7669 c-22 -36 -26 -49 -13 -49 9 1 44 71 38 77 -3 3 -14 -10
-25 -28z"/>
<path d="M4253 7633 c-44 -56 -55 -80 -40 -86 14 -5 15 -3 61 76 33 56 21 62
-21 10z"/>
<path d="M4156 7638 c-16 -22 -15 -35 2 -24 9 5 24 46 17 46 -2 0 -11 -10 -19
-22z"/>
<path d="M4295 7530 c-10 -19 -37 -60 -60 -90 -60 -78 -85 -122 -85 -148 0
-38 16 -23 71 68 72 116 102 176 97 192 -3 7 -12 -2 -23 -22z"/>
<path d="M4070 7290 c-6 -11 -8 -20 -6 -20 3 0 10 9 16 20 6 11 8 20 6 20 -3
0 -10 -9 -16 -20z"/>
<path d="M4220 7280 c-8 -16 -8 -18 4 -14 17 6 30 34 16 34 -5 0 -14 -9 -20
-20z"/>
<path d="M3039 7549 c-72 -78 -92 -109 -70 -109 8 0 87 90 119 135 4 6 16 21
26 33 11 12 14 22 9 22 -6 0 -44 -36 -84 -81z"/>
<path d="M3091 7514 c-67 -91 -80 -115 -63 -114 9 1 92 111 122 163 43 73 12
47 -59 -49z"/>
<path d="M3183 7496 c-10 -15 -37 -52 -60 -82 -46 -60 -57 -90 -22 -58 27 24
113 154 106 160 -3 3 -13 -6 -24 -20z"/>
<path d="M2685 6983 c-50 -53 -91 -100 -93 -105 -2 -4 4 -8 14 -8 22 0 84 65
134 138 36 53 65 73 36 25 l-17 -28 26 28 c25 28 26 47 1 47 -6 0 -52 -43
-101 -97z"/>
<path d="M2795 6877 c-168 -170 -285 -303 -285 -325 0 -22 193 178 379 392 43
50 60 76 49 76 -2 0 -66 -64 -143 -143z"/>
<path d="M3284 6928 c-163 -152 -540 -532 -632 -635 -93 -106 -185 -224 -291
-376 -58 -84 -70 -107 -53 -107 12 0 25 13 86 85 33 39 64 75 70 80 15 14 134
150 241 275 50 58 92 107 95 110 3 3 23 25 44 50 47 54 194 216 291 320 64 69
111 121 218 238 63 70 25 47 -69 -40z"/>
<path d="M2974 6838 c-190 -197 -379 -425 -542 -655 -55 -78 -55 -111 0 -41
159 203 483 594 620 751 63 71 74 87 64 87 -2 0 -66 -64 -142 -142z"/>
<path d="M4116 6891 c-10 -11 -16 -26 -14 -33 3 -8 11 -2 23 15 21 33 15 45
-9 18z"/>
<path d="M4189 6829 c-24 -28 -57 -65 -72 -83 -70 -78 -118 -149 -107 -160 7
-7 16 -7 28 0 16 10 159 203 195 264 28 46 6 36 -44 -21z"/>
<path d="M4373 6823 c-7 -3 -13 -9 -13 -14 0 -6 6 -7 13 -2 51 31 -198 -228
-467 -487 -112 -107 -141 -147 -124 -167 9 -11 43 19 167 144 265 269 398 420
437 495 14 27 9 39 -13 31z"/>
<path d="M4429 6728 c0 -2 -2 -11 -4 -22 -3 -17 -42 -67 -58 -74 -4 -2 -12
-12 -17 -23 -8 -14 -7 -19 3 -19 8 0 34 27 58 60 52 72 56 80 35 80 -9 0 -16
-1 -17 -2z"/>
<path d="M4480 6635 c-7 -9 -8 -15 -2 -15 5 0 12 7 16 15 3 8 4 15 2 15 -2 0
-9 -7 -16 -15z"/>
<path d="M3205 6600 c-68 -59 -417 -411 -507 -510 -117 -131 -328 -409 -328
-434 0 -17 28 -3 42 22 46 76 548 647 783 889 78 80 82 96 10 33z"/>
<path d="M3370 6521 c-19 -24 -122 -141 -136 -155 -86 -87 -500 -566 -589
-682 -16 -21 -67 -83 -112 -138 -75 -90 -93 -116 -78 -116 15 0 236 253 440
505 106 131 284 344 305 365 3 3 41 48 84 100 44 52 89 105 100 118 11 12 15
22 10 22 -5 0 -16 -9 -24 -19z"/>
<path d="M3555 6476 c-84 -116 -145 -186 -391 -442 -213 -223 -219 -229 -328
-364 -135 -167 -169 -217 -155 -226 7 -4 20 3 31 17 11 13 29 35 41 49 34 39
151 174 162 186 6 6 33 37 60 69 28 33 124 142 214 244 220 250 405 481 384
481 -4 0 -13 -6 -18 -14z"/>
<path d="M3997 6242 c-131 -132 -159 -172 -118 -172 19 0 64 49 187 203 64 80
82 107 71 107 -1 0 -64 -62 -140 -138z"/>
<path d="M3606 6287 c-21 -23 -73 -78 -115 -122 -194 -205 -299 -322 -437
-485 -172 -205 -274 -343 -274 -372 0 -32 33 -6 112 90 40 48 75 89 78 92 3 3
35 43 70 90 36 47 67 87 70 90 3 3 37 46 75 95 95 123 303 372 393 473 76 84
99 125 28 49z"/>
<path d="M4220 6280 c-9 -6 -10 -10 -3 -10 6 0 15 5 18 10 8 12 4 12 -15 0z"/>
<path d="M3673 6138 c-11 -13 -31 -39 -44 -60 -33 -49 -122 -149 -249 -281
-182 -189 -279 -289 -367 -379 -62 -64 -84 -92 -79 -104 7 -19 14 -14 140 112
289 289 530 565 583 668 8 16 25 38 37 48 11 9 16 17 10 18 -6 0 -20 -10 -31
-22z"/>
<path d="M4000 6078 c0 -8 -16 -28 -35 -47 -33 -30 -44 -51 -28 -51 8 0 61 59
74 82 6 11 5 19 -1 23 -5 3 -10 0 -10 -7z"/>
<path d="M3654 5903 c-31 -38 -84 -97 -118 -133 -86 -93 -233 -253 -261 -286
-26 -30 -24 -50 3 -35 28 15 160 157 248 266 93 115 197 255 190 255 -3 0 -30
-30 -62 -67z"/>
<path d="M3632 5662 c-23 -31 -56 -74 -74 -96 -26 -31 -28 -37 -13 -35 18 4
142 175 133 184 -2 3 -23 -21 -46 -53z"/>
<path d="M2343 5532 c-36 -28 -93 -106 -93 -126 0 -19 1 -19 20 -1 12 10 30
35 42 54 12 20 33 48 46 64 29 30 19 36 -15 9z"/>
<path d="M3646 5475 c-9 -26 -7 -32 5 -12 6 10 9 21 6 23 -2 3 -7 -2 -11 -11z"/>
<path d="M2918 5222 c-59 -65 -84 -112 -59 -112 10 0 95 130 89 136 -3 2 -16
-9 -30 -24z"/>
<path d="M2958 5077 c-32 -40 -69 -85 -82 -101 -22 -24 -27 -46 -11 -46 8 0
125 151 141 182 26 51 11 40 -48 -35z"/>
<path d="M2962 4906 c-53 -65 -62 -86 -38 -86 13 0 102 137 94 146 -3 2 -28
-25 -56 -60z"/>
<path d="M3000 4805 c-7 -9 -11 -17 -9 -20 3 -2 10 5 17 15 14 24 10 26 -8 5z"/>
<path d="M3337 4774 c-4 -4 -7 -14 -7 -23 0 -11 3 -12 11 -4 6 6 10 16 7 23
-2 6 -7 8 -11 4z"/>
<path d="M4184 4403 c-22 -24 -165 -266 -224 -378 -45 -87 -56 -130 -24 -104
8 6 14 16 14 21 0 6 24 51 54 101 29 51 64 110 77 132 35 62 127 245 123 245
-2 0 -11 -8 -20 -17z"/>
<path d="M4317 4348 c-24 -35 -100 -146 -169 -248 -69 -102 -139 -205 -156
-230 -19 -27 -27 -49 -22 -54 6 -5 11 -8 13 -5 76 95 189 247 235 315 72 108
168 284 153 284 -5 0 -30 -28 -54 -62z"/>
<path d="M4015 4378 c-9 -13 -52 -79 -96 -147 -71 -110 -88 -151 -61 -151 12
0 86 110 117 175 62 132 75 172 40 123z"/>
<path d="M4445 4273 c-10 -15 -64 -91 -120 -168 -110 -152 -168 -241 -209
-322 -29 -58 -32 -73 -13 -73 17 0 260 373 339 522 32 61 34 89 3 41z"/>
<path d="M4577 4238 c-13 -18 -71 -103 -129 -188 -57 -85 -126 -185 -152 -222
-66 -94 -121 -201 -105 -207 6 -2 16 5 22 15 6 11 61 94 123 186 117 172 224
343 224 357 0 4 14 27 30 49 17 23 26 42 21 42 -6 0 -21 -15 -34 -32z"/>
<path d="M4669 4093 c-95 -100 -388 -540 -405 -607 -10 -39 11 -32 44 17 16
23 49 71 74 107 49 69 224 347 246 391 8 14 31 49 53 78 45 60 39 67 -12 14z"/>
<path d="M4821 4003 c-22 -27 -75 -88 -117 -138 -144 -170 -344 -455 -344
-492 0 -44 68 34 226 257 21 30 41 57 44 60 3 3 52 75 109 160 57 85 113 165
124 178 11 12 16 22 10 22 -6 0 -29 -21 -52 -47z"/>
<path d="M5003 3933 c-13 -5 -126 -136 -193 -223 -19 -25 -37 -47 -40 -50 -24
-20 -202 -294 -268 -412 -54 -95 -19 -74 49 30 35 53 122 178 193 277 71 99
156 218 189 265 33 47 69 93 81 102 20 17 15 22 -11 11z"/>
<path d="M5020 3733 c-12 -16 -60 -86 -107 -158 -48 -71 -105 -155 -127 -185
-113 -152 -181 -280 -148 -280 4 0 27 33 51 73 25 39 47 74 51 77 17 14 204
306 241 375 23 44 51 90 62 103 11 12 16 22 10 22 -7 0 -21 -12 -33 -27z"/>
<path d="M5231 3713 c-25 -54 -170 -243 -287 -373 -136 -151 -402 -519 -387
-534 12 -12 20 -6 53 42 76 105 242 327 374 497 150 193 242 323 257 363 13
35 5 38 -10 5z"/>
<path d="M5200 3421 c-67 -71 -82 -92 -76 -107 5 -12 14 -5 39 29 17 25 42 59
55 76 28 38 17 39 -18 2z"/>
<path d="M4498 2943 c-34 -37 -64 -91 -55 -99 4 -4 8 -5 10 -3 10 13 76 129
73 129 -1 0 -14 -12 -28 -27z"/>
<path d="M4627 2727 c-25 -34 -66 -84 -91 -112 -25 -27 -46 -57 -46 -65 0 -20
69 57 137 153 66 94 66 113 0 24z"/>
<path d="M3022 3296 c7 -8 15 -12 17 -11 5 6 -10 25 -20 25 -5 0 -4 -6 3 -14z"/>
<path d="M1485 8168 c-87 -11 -174 -58 -233 -124 -148 -165 -170 -389 -51
-504 93 -88 225 -110 343 -57 54 25 167 99 209 138 38 35 119 71 158 71 70 -1
129 -56 129 -119 -1 -43 -34 -107 -77 -148 -45 -43 -113 -65 -207 -68 l-68 -2
4 -90 c3 -50 7 -96 11 -101 10 -17 126 -16 190 1 85 22 154 61 212 119 134
134 185 329 121 460 -31 63 -84 114 -158 153 -46 24 -65 28 -138 28 -104 0
-148 -20 -296 -132 -151 -114 -201 -133 -252 -97 -50 35 -58 92 -24 161 38 74
109 111 217 113 19 0 20 7 19 97 0 94 -1 97 -25 103 -13 3 -51 2 -84 -2z"/>
<path d="M9495 7785 c-82 -41 -204 -100 -270 -131 -66 -32 -220 -106 -342
-165 l-223 -108 50 -101 c28 -55 54 -99 58 -97 4 2 34 16 67 32 33 15 96 46
140 67 151 75 142 73 166 27 l20 -40 -81 -135 c-45 -74 -101 -167 -125 -205
l-43 -70 59 -121 60 -121 21 39 c23 44 32 59 147 266 l83 147 43 -34 c167
-127 415 -68 510 121 26 51 30 69 30 144 0 56 -6 103 -18 138 -17 52 -193 423
-199 421 -2 0 -70 -34 -153 -74z m118 -292 c46 -102 50 -117 42 -169 -11 -79
-105 -143 -187 -129 -18 3 -47 17 -65 31 -33 25 -45 43 -94 146 l-28 57 102
48 c56 26 119 58 142 70 22 12 43 22 46 23 3 0 22 -35 42 -77z"/>
<path d="M7810 7575 c19 -19 36 -35 39 -35 3 0 -10 16 -29 35 -19 19 -36 35
-39 35 -3 0 10 -16 29 -35z"/>
<path d="M7864 7548 c16 -21 30 -38 33 -38 8 0 -16 36 -38 55 -19 16 -18 13 5
-17z"/>
<path d="M851 7262 c-19 -59 -36 -112 -38 -119 -3 -6 71 -89 164 -183 92 -94
169 -175 171 -180 2 -4 -30 -14 -70 -20 -40 -7 -82 -14 -93 -16 -11 -2 -45 -8
-75 -14 -30 -6 -64 -12 -75 -14 -11 -2 -40 -7 -65 -11 -78 -13 -93 -16 -101
-20 -9 -6 -82 -235 -76 -241 2 -3 42 4 88 15 121 28 281 64 469 106 l165 36
215 -70 c118 -38 216 -69 217 -68 0 1 17 50 36 109 l35 108 -217 70 -216 70
-200 227 c-268 303 -286 323 -294 323 -3 0 -21 -48 -40 -108z"/>
<path d="M8160 7121 c0 -6 4 -13 10 -16 6 -3 7 1 4 9 -7 18 -14 21 -14 7z"/>
<path d="M10015 6784 c-33 -7 -211 -47 -395 -89 -184 -41 -389 -87 -455 -102
-66 -14 -122 -28 -123 -29 -3 -2 1 -28 22 -129 24 -111 125 -547 128 -550 2
-3 45 6 94 18 l91 22 -47 210 c-26 116 -50 220 -54 232 -6 18 -3 23 16 28 13
3 78 18 146 34 85 20 125 25 127 17 2 -6 24 -103 48 -214 25 -112 47 -206 49
-208 3 -2 42 4 89 15 103 22 99 -5 39 258 -18 76 -34 152 -37 170 l-4 31 98
23 c54 12 103 24 110 25 7 1 18 -26 28 -69 9 -40 22 -99 30 -132 8 -33 24
-105 36 -160 12 -55 23 -101 24 -103 4 -5 185 40 185 46 0 4 -16 77 -35 162
-20 85 -37 164 -39 175 -2 11 -16 72 -31 135 -14 63 -28 126 -31 140 -13 67
-11 67 -109 44z"/>
<path d="M1053 6071 c-321 -125 -585 -230 -589 -233 -3 -4 25 -24 63 -46 356
-206 646 -373 683 -394 25 -14 115 -66 200 -116 85 -49 156 -89 158 -88 1 2 5
30 7 62 3 32 7 88 10 124 l6 65 -118 66 -118 66 2 54 c0 30 4 83 7 119 3 36 8
96 11 135 3 38 7 70 8 71 1 0 54 20 118 43 64 24 121 46 126 49 6 4 14 59 18
122 4 63 9 118 12 123 2 4 -2 7 -9 6 -7 0 -275 -103 -595 -228z m143 -188 c-3
-16 -8 -71 -11 -123 -4 -52 -10 -98 -14 -102 -4 -5 -72 27 -151 69 -79 42
-137 79 -129 81 8 3 75 27 149 53 74 26 141 48 148 48 8 1 11 -8 8 -26z"/>
<path d="M1074 5199 c-305 -28 -500 -226 -508 -518 -1 -53 1 -112 5 -131 4
-19 10 -53 14 -75 14 -97 47 -291 50 -301 3 -11 121 6 425 61 109 19 137 24
180 31 19 3 85 14 145 25 61 10 126 21 145 24 178 27 185 30 183 55 -2 37 -10
91 -29 195 -2 11 -11 61 -19 110 -30 170 -82 288 -168 374 -114 116 -254 165
-423 150z m196 -256 c25 -11 62 -37 84 -58 42 -41 91 -138 100 -195 3 -19 10
-59 16 -89 5 -30 9 -56 7 -57 -3 -3 -193 -37 -327 -59 -59 -9 -217 -36 -240
-41 -93 -17 -108 -17 -113 2 -17 58 -29 176 -24 230 10 104 69 198 151 241
100 53 261 65 346 26z"/>
<path d="M1285 3958 c-275 -105 -501 -192 -503 -193 -2 -2 32 -97 67 -187 l10
-28 83 31 c156 59 204 76 518 197 173 66 341 130 372 142 l57 21 -13 32 c-7
18 -26 65 -40 105 -15 39 -33 72 -39 71 -7 0 -237 -86 -512 -191z"/>
<path d="M1817 3613 c-47 -109 -93 -215 -102 -236 l-15 -37 -45 29 c-62 40
-124 55 -198 49 -139 -12 -274 -117 -308 -242 -17 -61 -13 -143 10 -216 18
-56 207 -386 245 -427 9 -10 26 -4 81 30 39 24 248 152 467 286 l396 242 -50
82 c-28 45 -56 88 -62 95 -10 10 -45 -7 -180 -89 -92 -56 -168 -100 -170 -98
-1 2 -12 20 -24 40 l-22 37 100 207 c55 114 100 212 100 219 0 10 -113 201
-130 219 -4 4 -46 -81 -93 -190z m-227 -438 c33 -17 48 -35 103 -121 l45 -71
-133 -81 c-74 -45 -138 -82 -144 -82 -23 0 -111 172 -111 217 0 32 26 93 48
110 60 49 131 60 192 28z"/>
<path d="M9108 3647 l-37 -72 29 -15 c32 -16 35 -33 7 -37 -95 -15 -181 -141
-180 -263 2 -132 86 -236 235 -287 133 -46 282 20 344 152 26 54 32 141 13
177 -15 28 -6 32 33 13 122 -62 160 -146 112 -243 -30 -61 -85 -95 -146 -90
l-43 3 -32 -60 c-18 -33 -33 -65 -33 -72 0 -19 79 -36 143 -30 70 6 133 41
180 100 104 130 131 260 76 374 -40 82 -85 112 -554 363 l-111 59 -36 -72z
m234 -222 c97 -64 98 -199 3 -264 -58 -39 -132 -33 -201 17 -51 37 -71 130
-41 189 48 90 151 116 239 58z"/>
<path d="M8813 3111 c-18 -11 -40 -32 -49 -46 -22 -34 -33 -95 -22 -125 12
-31 6 -34 -25 -10 l-25 20 -49 -66 c-26 -36 -46 -69 -44 -72 6 -10 454 -344
466 -348 6 -2 31 26 57 61 l48 64 -142 108 c-157 119 -182 146 -180 195 1 34
47 88 77 88 18 0 -47 144 -67 148 -7 1 -27 -7 -45 -17z"/>
<path d="M8442 2648 l-60 -59 139 -138 c168 -167 184 -199 137 -268 -27 -39
-68 -58 -105 -48 -17 4 -85 64 -176 153 l-147 146 -63 -62 -62 -62 145 -146
c160 -160 221 -204 288 -204 109 0 222 121 210 226 -5 41 4 43 31 7 l21 -26
27 24 c40 37 67 64 82 83 13 15 -6 37 -197 226 l-211 208 -59 -60z"/>
<path d="M2699 2670 c-13 -12 -88 -85 -167 -162 l-143 -141 -139 143 -139 144
-22 -19 c-60 -52 -110 -106 -107 -114 1 -5 63 -71 137 -147 l134 -137 -88 -86
-88 -85 -143 148 c-93 95 -148 145 -156 140 -22 -14 -128 -117 -128 -125 0 -5
66 -76 148 -160 81 -83 179 -184 218 -225 l71 -75 74 72 c41 39 186 180 322
313 137 132 280 271 318 307 38 37 69 71 69 76 0 5 -33 41 -73 81 l-73 73 -25
-21z"/>
<path d="M7357 2273 c-37 -27 -65 -53 -63 -58 4 -11 561 -792 576 -809 8 -8
140 79 140 92 0 4 -9 18 -20 32 -26 34 -25 40 8 31 144 -41 307 107 305 276
-2 157 -135 307 -287 326 -129 16 -276 -90 -291 -209 -3 -21 -6 -39 -8 -40 -1
-1 -47 62 -102 139 -55 77 -121 169 -146 204 l-46 63 -66 -47z m681 -299 c85
-55 117 -165 70 -234 -52 -75 -122 -96 -198 -58 -129 66 -141 234 -20 296 51
25 105 24 148 -4z"/>
<path d="M7283 1771 c-157 -54 -219 -189 -137 -297 36 -48 88 -61 225 -56 100
3 118 1 133 -13 23 -24 17 -54 -17 -79 -22 -16 -41 -20 -92 -19 -36 1 -80 6
-100 12 -38 10 -34 15 -50 -59 -2 -8 -6 -25 -10 -37 -9 -33 49 -55 150 -56 70
-1 88 3 145 30 36 16 82 47 102 68 34 34 40 48 52 110 6 29 -22 106 -47 133
-49 53 -110 64 -264 48 -83 -8 -116 3 -111 36 6 42 52 63 138 63 l78 0 6 35
c12 73 8 87 -25 94 -55 11 -122 6 -176 -13z"/>
<path d="M4826 1649 c-9 -36 -66 -329 -72 -368 -3 -18 -7 -41 -9 -50 -52 -254
-95 -494 -90 -499 3 -3 47 -7 99 -9 71 -3 93 -1 93 9 0 11 9 67 29 188 2 14
11 64 19 112 9 48 18 106 21 130 4 24 7 44 9 46 1 1 56 -92 121 -207 93 -165
121 -208 131 -198 6 6 64 86 127 177 64 91 122 174 131 185 15 19 15 18 16 -5
0 -14 2 -38 4 -55 3 -37 14 -191 21 -310 2 -49 6 -95 8 -101 2 -6 33 -12 68
-13 34 -1 78 -4 96 -6 l32 -3 -5 62 c-6 75 -15 166 -21 226 -2 25 -6 72 -9
105 -3 33 -7 80 -10 105 -3 25 -8 74 -10 110 -3 36 -7 81 -10 100 -2 19 -7 69
-10 110 -6 72 -14 132 -18 137 -2 2 -286 -389 -373 -513 l-31 -44 -158 272
c-88 150 -167 286 -176 302 l-18 29 -5 -24z"/>
<path d="M6690 1521 c-79 -25 -117 -47 -163 -94 -61 -62 -82 -117 -81 -212 0
-68 4 -89 29 -138 66 -134 207 -197 358 -162 212 49 321 236 248 426 -60 156
-226 232 -391 180z m170 -161 c60 -43 89 -155 56 -218 -49 -95 -178 -118 -248
-45 -47 49 -67 129 -48 188 30 92 159 133 240 75z"/>
<path d="M5995 1355 c-113 -28 -188 -83 -231 -172 -95 -193 37 -423 252 -441
173 -13 326 78 369 221 17 57 12 159 -10 212 -60 141 -221 218 -380 180z m146
-157 c48 -27 81 -89 82 -156 1 -116 -122 -193 -225 -141 -61 31 -91 87 -90
167 3 117 130 188 233 130z"/>
</g>
</svg>
